<!-- Copyright © 2015 MODULUS Sp. z o. o. / FUTURAMO™ --><svg xmlns="http://www.w3.org/2000/svg" x="0px" y="0px" width="64px" height="64px" viewBox="0 0 32 32"><path  fill="#666666" d="M1,29H0V15.5C0,15.224,0.224,15,0.5,15S1,15.224,1,15.5V29z M25,11.5c0-0.276-0.224-0.5-0.5-0.5 S24,11.224,24,11.5V29h1V11.5z M13,7.5C13,7.224,12.776,7,12.5,7S12,7.224,12,7.5V29h1V7.5z M19,3.5C19,3.224,18.776,3,18.5,3 S18,3.224,18,3.5V29h1V3.5z M30.5,31h-30C0.224,31,0,31.224,0,31.5C0,31.776,0.224,32,0.5,32h30c0.276,0,0.5-0.224,0.5-0.5 C31,31.224,30.776,31,30.5,31z M30.5,0C30.224,0,30,0.224,30,0.5V29h1V0.5C31,0.224,30.776,0,30.5,0z M6.5,17 C6.224,17,6,17.224,6,17.5V29h1V17.5C7,17.224,6.776,17,6.5,17z"></path></svg>